<svg width="21" height="25" viewBox="0 0 21 25" fill="none" xmlns="http://www.w3.org/2000/svg">
<path d="M10.034 10.5012C6.96523 10.5118 4.47048 8.21846 4.46061 5.37767C4.45075 2.53688 6.92951 0.226225 9.99827 0.215566C13.067 0.204906 15.5618 2.49829 15.5717 5.33907C15.5815 8.17986 13.1028 10.4905 10.034 10.5012ZM10.0054 2.27269C8.18003 2.27903 6.67695 3.68017 6.68282 5.36995C6.68869 7.05973 8.20147 8.4504 10.0269 8.44406C11.8522 8.43771 13.3553 7.03657 13.3494 5.34679C13.3436 3.65701 11.8308 2.26635 10.0054 2.27269Z" fill="#404142"/>
<path d="M16.0086 24.1947L4.15684 24.2359C3.07219 24.2397 2.03909 23.8514 1.26943 23.1439C0.499772 22.4363 0.0731766 21.4827 0.0696889 20.4787L0.0649251 19.1072C0.0588854 17.3685 0.793922 15.7251 2.11241 14.496C3.4309 13.267 5.201 12.5751 7.07929 12.5686L13.0052 12.548C14.8835 12.5415 16.6583 13.221 17.9853 14.4409C19.3123 15.6608 20.0588 17.299 20.0648 19.0378L20.0696 20.4092C20.0731 21.4133 19.6531 22.3698 18.8884 23.0827C18.1236 23.7955 17.0933 24.191 16.0086 24.1947ZM7.08644 14.6257C5.79015 14.6302 4.6013 15.0996 3.67827 15.9355C2.78169 16.7713 2.28297 17.8995 2.28713 19.0995L2.2919 20.4709C2.29343 20.9117 2.48014 21.3519 2.85162 21.669C3.19664 21.9862 3.67351 22.1804 4.14969 22.1788L16.0015 22.1376C16.4777 22.1359 16.9533 21.9629 17.296 21.6188C17.6388 21.2993 17.8489 20.8577 17.8474 20.4169L17.8426 19.0455C17.8384 17.8455 17.332 16.7452 16.4295 15.8912C15.5272 15.0617 14.2822 14.6007 13.0123 14.6051L7.08644 14.6257Z" fill="#404142"/>
</svg>
