<svg width="23" height="25" viewBox="0 0 23 25" fill="none" xmlns="http://www.w3.org/2000/svg">
<path d="M4.07245 24.0628C3.56528 24.0645 3.02959 23.9684 2.55 23.7987C2.04215 23.6045 1.59039 23.3367 1.19474 22.9952C0.79908 22.6537 0.515872 22.2384 0.317108 21.7983C0.118259 21.3336 0.032114 20.8686 0.086765 20.3786L1.33651 7.02731C1.3909 6.46385 1.67088 5.94859 2.14851 5.5551C2.62614 5.1616 3.21708 4.93914 3.89339 4.96128L18.1505 4.91175C18.7986 4.9095 19.4192 5.12776 19.8995 5.49344C20.3797 5.85912 20.6634 6.39691 20.7217 6.95997L22.0641 20.2778C22.094 20.792 22.0111 21.2576 21.8436 21.699C21.648 22.165 21.3676 22.5578 20.9743 22.902C20.581 23.2462 20.1311 23.5172 19.6247 23.7149C19.1182 23.9125 18.4985 23.9882 18.0196 23.9898L4.12871 24.0381C4.1288 24.0626 4.10062 24.0627 4.07245 24.0628ZM3.90045 6.99391C3.8441 6.99411 3.78783 7.0188 3.73156 7.04348C3.70347 7.06807 3.67547 7.11715 3.67564 7.16612L2.42589 20.5175C2.42649 20.6889 2.45535 20.8847 2.54056 21.0803C2.62577 21.2759 2.73898 21.4225 2.90855 21.5688C3.07811 21.7152 3.24751 21.8126 3.47326 21.9097C3.69893 21.9824 3.89633 22.0307 4.12174 22.0299L18.0408 21.9816L18.0689 21.9815C18.2943 21.9807 18.5196 21.9309 18.7166 21.8568C18.9135 21.7826 19.1103 21.6595 19.2789 21.512C19.4474 21.3645 19.5595 21.1926 19.6435 21.0209C19.7274 20.8492 19.7548 20.6287 19.726 20.4329L18.3836 7.11504C18.3834 7.06606 18.3551 7.01717 18.2986 6.99288L3.90045 6.99391Z" fill="#404142"/>
<path d="M15.2681 10.6029C14.62 10.6052 14.0831 10.1417 14.0811 9.57847L14.06 3.50505C14.0593 3.30913 14.0306 3.1378 13.9454 2.96667C13.8603 2.79553 13.7471 2.64899 13.6057 2.50254C13.4643 2.35609 13.2667 2.25882 13.0693 2.21052C12.8719 2.13774 12.6745 2.11393 12.4491 2.11472L9.60334 2.1246C9.18069 2.12607 8.75856 2.27448 8.44956 2.54494C8.14056 2.8154 7.97269 3.15884 7.97405 3.55068L7.99507 9.59961C7.99702 10.1629 7.46329 10.63 6.81524 10.6323C6.16719 10.6345 5.63023 10.1711 5.62827 9.60783L5.60717 3.53441C5.60394 2.6038 6.02361 1.7452 6.75389 1.08143C7.54052 0.417475 8.52541 0.046706 9.59611 0.0429869L12.4137 0.0331996C12.9491 0.03134 13.4566 0.127537 13.9362 0.2973C14.4158 0.467063 14.8675 0.734883 15.2349 1.05198C15.6023 1.36907 15.8854 1.75992 16.1123 2.17546C16.311 2.61559 16.4253 3.05601 16.4268 3.49682L16.4479 9.57024C16.4499 10.158 15.9161 10.6007 15.2681 10.6029Z" fill="#404142"/>
</svg>
