<svg width="41" height="41" viewBox="0 0 41 41" fill="none" xmlns="http://www.w3.org/2000/svg">
<rect x="0.939171" y="1.0924" width="38.3334" height="38.3333" rx="19.1667" transform="rotate(-0.199022 0.939171 1.0924)" stroke="black" stroke-width="1.66668"/>
<path fill-rule="evenodd" clip-rule="evenodd" d="M18.9341 12.2299C19.8874 11.217 21.1901 10.639 22.5576 10.6342L25.1926 10.6251C25.5928 10.6237 25.9184 10.9501 25.9198 11.3542L25.9327 15.0616C25.9341 15.4657 25.6108 15.7944 25.2106 15.7958L22.5756 15.8049C22.5453 15.805 22.5096 15.8175 22.4782 15.8509C22.4457 15.8854 22.4223 15.9387 22.4225 16.0006L22.4296 18.0494L25.2184 18.0397C25.4402 18.0389 25.6502 18.1408 25.7883 18.3162C25.9263 18.4916 25.9771 18.7211 25.9263 18.9392L25.0608 22.6495C24.9839 22.9791 24.6933 23.2123 24.358 23.2135L22.4476 23.2201L22.4708 29.903C22.4722 30.3071 22.1489 30.6358 21.7487 30.6372L18.2353 30.6494C17.8351 30.6508 17.5095 30.3244 17.5081 29.9202L17.4849 23.2373L15.5745 23.244C15.1743 23.2454 14.8487 22.9189 14.8473 22.5148L14.8345 18.8075C14.8331 18.4034 15.1563 18.0746 15.5566 18.0732L17.467 18.0666L17.4598 16.0178C17.4549 14.6049 17.9819 13.2418 18.9341 12.2299ZM22.5627 12.0976C21.6006 12.101 20.6726 12.5071 19.9847 13.2381C19.2958 13.9701 18.9055 14.9677 18.9091 16.0128L18.9188 18.7933C18.9202 19.1974 18.5969 19.5261 18.1967 19.5275L16.2863 19.5341L16.2941 21.778L18.2045 21.7714C18.6047 21.77 18.9303 22.0965 18.9317 22.5006L18.9549 29.1835L21.019 29.1763L20.9958 22.4934C20.9944 22.0893 21.3177 21.7606 21.7179 21.7592L23.7812 21.752L24.305 19.5063L21.7101 19.5153C21.3099 19.5167 20.9843 19.1902 20.9829 18.7861L20.9732 16.0056C20.9718 15.5759 21.1318 15.1571 21.4276 14.8428C21.7244 14.5274 22.1348 14.343 22.5705 14.3415L24.4809 14.3349L24.4731 12.091L22.5627 12.0976Z" fill="black"/>
</svg>
