<svg width="41" height="42" viewBox="0 0 41 42" fill="none" xmlns="http://www.w3.org/2000/svg">
<rect x="0.938813" y="1.88391" width="38.3334" height="38.3333" rx="19.1667" transform="rotate(-0.199022 0.938813 1.88391)" stroke="black" stroke-width="1.66668"/>
<path fill-rule="evenodd" clip-rule="evenodd" d="M15.5999 13.2682C13.5916 13.2752 11.9692 14.9089 11.9762 16.9172L12.0078 26.0081C12.0148 28.0164 13.6485 29.6388 15.6568 29.6318L24.7477 29.6003C26.756 29.5933 28.3784 27.9596 28.3714 25.9513L28.3399 16.8604C28.3329 14.8521 26.6992 13.2297 24.6909 13.2366L15.5999 13.2682ZM10.158 16.9235C10.1476 13.9111 12.5812 11.4605 15.5936 11.45L24.6845 11.4185C27.697 11.408 30.1476 13.8416 30.158 16.8541L30.1896 25.945C30.2001 28.9574 27.7665 31.408 24.754 31.4184L15.6631 31.45C12.6506 31.4605 10.2001 29.0269 10.1896 26.0144L10.158 16.9235ZM24.2474 16.42C24.2457 15.918 24.6513 15.5095 25.1533 15.5078L25.1615 15.5078C25.6635 15.506 26.072 15.9116 26.0737 16.4137C26.0754 16.9158 25.6698 17.3242 25.1678 17.3259L25.1597 17.326C24.6576 17.3277 24.2492 16.9221 24.2474 16.42ZM20.6042 18.6956C20.0365 18.6134 19.4573 18.7123 18.949 18.9783C18.4407 19.2443 18.0293 19.6637 17.7732 20.177C17.517 20.6903 17.4293 21.2713 17.5224 21.8374C17.6155 22.4034 17.8847 22.9257 18.2917 23.3299C18.6988 23.7341 19.2229 23.9997 19.7896 24.0889C20.3563 24.178 20.9366 24.0863 21.4481 23.8266C21.9596 23.5669 22.3762 23.1525 22.6387 22.6424C22.9011 22.1323 22.996 21.5525 22.9099 20.9853C22.8221 20.4068 22.5505 19.8719 22.1353 19.4596C21.7201 19.0472 21.1833 18.7794 20.6042 18.6956ZM18.106 17.3674C18.9531 16.9241 19.9184 16.7592 20.8646 16.8961C21.8298 17.0358 22.7245 17.4823 23.4165 18.1695C24.1085 18.8566 24.5611 19.7482 24.7075 20.7124C24.851 21.6576 24.6928 22.6241 24.2554 23.4742C23.8181 24.3244 23.1237 25.015 22.2712 25.4478C21.4187 25.8806 20.4514 26.0336 19.507 25.885C18.5625 25.7363 17.689 25.2937 17.0106 24.62C16.3322 23.9463 15.8835 23.0759 15.7283 22.1325C15.5731 21.1891 15.7194 20.2207 16.1463 19.3652C16.5731 18.5098 17.2589 17.8106 18.106 17.3674Z" fill="black"/>
</svg>
