<svg width="247" height="82" viewBox="0 0 247 82" fill="none" xmlns="http://www.w3.org/2000/svg">
<path d="M27.1775 35.2338C27.1613 30.5671 28.3371 27.1984 30.7049 25.1277C33.1351 23.0151 37.0377 21.9494 42.4126 21.9308L44.3189 21.9241L44.3969 44.3927C44.4306 54.0802 41.6813 60.2981 36.1492 63.0465C34.215 64.0116 31.8938 64.4988 29.1855 64.5082L27.2792 64.5148L27.1775 35.2338ZM19.9043 64.5404C14.6751 64.5586 10.773 62.7492 8.19784 59.1123C5.81113 55.7456 4.60674 50.8852 4.58467 44.531L4.50662 22.0624L6.41286 22.0558C11.7878 22.0371 15.6977 23.0756 18.1425 25.1713C20.5247 27.2256 21.7238 30.586 21.74 35.2526L21.8418 64.5337L19.9043 64.5404ZM62.1698 23.9559C55.274 23.9798 51.8186 21.8356 51.8036 17.5231C51.796 15.3148 52.6134 13.7286 54.2559 12.7646C55.8983 11.7797 58.407 11.2814 61.782 11.2697C65.157 11.2579 67.6482 11.7389 69.2558 12.7125C70.8633 13.6652 71.6709 15.2562 71.6786 17.4853C71.6863 19.6936 70.9419 21.3212 69.4456 22.3681C67.97 23.4149 65.5448 23.9442 62.1698 23.9559ZM53.606 32.5794L70.4183 32.521L70.529 64.3646L53.7166 64.423L53.606 32.5794ZM82.3661 44.4484C82.3027 44.1986 82.2497 43.9279 82.207 43.6364L82.079 42.7618C81.9935 42.1371 81.9493 41.4081 81.9464 40.5748C81.9434 39.7206 82.1275 38.7408 82.4987 37.6354C82.8907 36.5298 83.5228 35.5693 84.3949 34.7538C86.2638 32.9973 89.1566 32.1122 93.0733 32.0986L116.363 52.4241C116.574 53.1733 116.681 54.173 116.686 55.423C116.69 56.6521 116.486 57.8299 116.073 58.9564C115.66 60.062 114.997 61.0226 114.083 61.8383C112.131 63.6368 109.28 64.5425 105.53 64.5555L82.5849 44.4476L82.3661 44.4484ZM116.824 32.3286C117.453 33.2848 117.77 34.5962 117.775 36.2628C117.786 39.3461 116.638 41.6522 114.331 43.1811L101.762 32.3809L116.824 32.3286ZM81.5289 64.3264C80.9006 63.3702 80.5835 62.0588 80.5777 60.3922C80.5671 57.3297 81.705 55.0341 83.9913 53.5053L96.5913 64.2741L81.5289 64.3264ZM136.857 23.6965C129.961 23.7204 126.506 21.5761 126.491 17.2637C126.483 15.0554 127.3 13.4692 128.943 12.5051C130.585 11.5203 133.094 11.022 136.469 11.0102C139.844 10.9985 142.335 11.4794 143.943 12.453C145.55 13.4058 146.358 14.9967 146.366 17.2259C146.373 19.4342 145.629 21.0618 144.133 22.1087C142.657 23.1555 140.232 23.6847 136.857 23.6965ZM128.293 32.32L145.105 32.2616L145.216 64.1052L128.404 64.1636L128.293 32.32ZM176.355 32.1218L178.761 32.1134C183.886 32.0956 187.829 33.6653 190.59 36.8224C193.079 39.6888 194.332 43.4969 194.349 48.2469C194.366 53.0802 193.004 56.8766 190.263 59.6362C187.398 62.5211 183.341 63.9727 178.091 63.991L176.466 63.9966L176.355 32.1218ZM153.412 48.5141C153.404 46.2224 153.699 44.0964 154.296 42.136C154.893 40.1547 155.825 38.4223 157.09 36.9388C159.829 33.7626 163.761 32.1656 168.886 32.1478L171.293 32.1394L171.403 64.0142L169.778 64.0198C164.528 64.0381 160.461 62.6147 157.576 59.7497C154.816 57.0093 153.428 53.2641 153.412 48.5141ZM224.386 31.955L227.199 31.9452C234.865 31.9186 239.447 34.5068 240.944 39.71C241.45 41.3958 241.707 43.3428 241.715 45.5511L241.778 63.7697L224.497 63.8298L224.386 31.955ZM201.855 32.0332L219.23 31.9729L219.341 63.8477L201.966 63.908L201.855 32.0332Z" fill="black"/>
</svg>
