<svg width="61" height="61" viewBox="0 0 61 61" fill="none" xmlns="http://www.w3.org/2000/svg">
<path fill-rule="evenodd" clip-rule="evenodd" d="M30.6315 5.78805C17.0755 5.83514 6.12433 16.8626 6.17142 30.4186C6.21851 43.9746 17.246 54.9258 30.802 54.8787C44.358 54.8316 55.3091 43.8041 55.262 30.2481C55.2149 16.6921 44.1875 5.74096 30.6315 5.78805ZM0.716909 30.4376C0.659357 13.8691 14.0441 0.391089 30.6125 0.333537C47.181 0.275985 60.659 13.6607 60.7165 30.2291C60.7741 46.7976 47.3894 60.2756 30.8209 60.3332C14.2525 60.3907 0.774461 47.006 0.716909 30.4376ZM23.9291 17.0432C24.8142 16.5655 25.8904 16.6138 26.7292 17.1688L43.1307 28.021C43.8912 28.5242 44.3498 29.3741 44.353 30.286C44.3562 31.1979 43.9034 32.051 43.1464 32.5594L26.8208 43.5253C25.9859 44.0861 24.91 44.1419 24.0216 43.6704C23.1331 43.1988 22.5763 42.2766 22.5729 41.2708L22.4971 19.4528C22.4936 18.447 23.044 17.5209 23.9291 17.0432ZM27.9693 24.5297L28.0097 36.1559L36.7091 30.3125L27.9693 24.5297Z" fill="white"/>
</svg>
