<svg width="25" height="25" viewBox="0 0 25 25" fill="none" xmlns="http://www.w3.org/2000/svg">
<path fill-rule="evenodd" clip-rule="evenodd" d="M10.7844 2.40029C5.93661 2.41713 2.02034 6.3607 2.03718 11.2085C2.05402 16.0563 5.99759 19.9726 10.8454 19.9557C13.2168 19.9475 15.3652 18.9996 16.9395 17.466C16.9681 17.4273 16.9999 17.3901 17.0349 17.3549C17.0698 17.3197 17.1067 17.2877 17.1453 17.2588C18.668 15.6739 19.6008 13.5189 19.5926 11.1475C19.5758 6.29972 15.6322 2.38346 10.7844 2.40029ZM19.1342 18.0304C20.6779 16.1583 21.6017 13.7567 21.5926 11.1406C21.5719 5.18821 16.7298 0.379631 10.7775 0.400307C4.8251 0.420983 0.0165172 5.26308 0.0371933 11.2154C0.0578694 17.1678 4.89997 21.9764 10.8523 21.9557C13.4684 21.9466 15.8636 21.0062 17.7249 19.4495L22.3749 24.0673C22.7667 24.4565 23.3999 24.4543 23.7891 24.0624C24.1782 23.6705 24.176 23.0373 23.7842 22.6482L19.1342 18.0304Z" fill="#404142"/>
</svg>
